<?xml version="1.0" standalone="no"?>
<!DOCTYPE svg PUBLIC "-//W3C//DTD SVG 20010904//EN"
 "http://www.w3.org/TR/2001/REC-SVG-20010904/DTD/svg10.dtd">
<svg version="1.0" xmlns="http://www.w3.org/2000/svg"
 width="128.000000pt" height="128.000000pt" viewBox="0 0 128.000000 128.000000"
 preserveAspectRatio="xMidYMid meet">
<metadata>
Created by potrace 1.11, written by Peter Selinger 2001-2013
</metadata>
<g transform="translate(0.000000,128.000000) scale(0.100000,-0.100000)"
fill="#000000" stroke="none">
<path d="M578 1090 c-65 -43 -230 -217 -267 -281 -17 -30 -31 -67 -31 -82 0
-25 3 -27 23 -22 103 30 367 316 367 397 0 28 -40 22 -92 -12z"/>
<path d="M764 996 c-96 -36 -204 -108 -204 -136 0 -30 160 34 242 97 88 67 74
81 -38 39z"/>
<path d="M280 406 c0 -41 104 -66 280 -66 174 0 280 24 280 62 0 13 -5 18 -14
15 -67 -26 -115 -32 -266 -31 -149 0 -201 6 -266 31 -8 3 -14 -1 -14 -11z"/>
<path d="M282 327 c2 -12 15 -27 29 -34 76 -37 366 -41 477 -8 44 13 52 19 52
40 0 23 -1 24 -34 10 -94 -40 -349 -42 -468 -5 l-59 18 3 -21z"/>
</g>
</svg>
