<?xml version="1.0" standalone="no"?>
<!DOCTYPE svg PUBLIC "-//W3C//DTD SVG 20010904//EN"
 "http://www.w3.org/TR/2001/REC-SVG-20010904/DTD/svg10.dtd">
<svg version="1.0" xmlns="http://www.w3.org/2000/svg"
 width="151.000000pt" height="35.000000pt" viewBox="0 0 151.000000 35.000000"
 preserveAspectRatio="xMidYMid meet">
<metadata>
Created by potrace 1.11, written by Peter Selinger 2001-2013
</metadata>
<g transform="translate(0.000000,35.000000) scale(0.100000,-0.100000)"
fill="#000000" stroke="none">
<path d="M0 175 l0 -175 360 0 c233 0 360 4 360 10 0 6 10 11 23 11 20 1 20 2
2 6 -11 3 -23 10 -27 17 -6 8 -8 7 -8 -1 0 -7 -11 -13 -25 -13 -23 0 -25 3
-25 50 0 46 2 50 24 50 13 0 27 -6 29 -12 4 -10 6 -10 6 0 1 8 17 12 46 12 41
0 45 -2 45 -25 0 -19 4 -23 17 -18 11 4 12 8 5 11 -7 2 -12 10 -12 18 0 10 12
14 40 14 45 0 60 -18 60 -70 l0 -32 -55 4 c-45 2 -55 0 -59 -15 -4 -16 18 -17
350 -17 l354 0 0 175 0 175 -535 0 -535 0 0 -25 c0 -24 2 -25 40 -19 45 7 53
-6 18 -30 -22 -16 -22 -16 16 -16 43 0 46 -23 3 -28 -17 -2 -24 -8 -21 -17 7
-18 -5 -24 -84 -41 l-67 -14 65 5 c35 3 69 10 74 15 21 21 26 8 26 -65 0 -88
2 -88 -130 -83 l-85 3 -3 73 -3 73 28 -7 c22 -4 25 -3 13 5 -8 6 -23 11 -32
11 -10 0 -18 3 -18 6 0 18 46 78 87 114 l46 40 -207 0 -206 0 0 -175z m698 -7
c21 -21 13 -31 -23 -25 -21 3 -35 2 -35 -4 0 -6 -8 -8 -19 -4 -31 9 -51 -5
-51 -36 0 -29 23 -50 38 -34 4 4 1 10 -5 12 -26 9 -13 33 17 33 28 0 30 -2 30
-40 l0 -40 -47 0 c-57 0 -83 20 -83 67 0 51 30 74 90 72 28 -2 53 0 57 4 9 10
17 9 31 -5z m310 -10 c7 -7 12 -21 12 -31 0 -15 3 -17 13 -8 17 13 117 12 135
-1 8 -7 12 -7 12 1 0 6 9 11 20 11 24 0 26 -13 5 -30 -14 -12 -14 -15 0 -36 8
-13 15 -26 15 -29 0 -11 -39 -4 -43 8 -4 9 -8 9 -14 1 -10 -15 -112 -17 -129
-3 -8 7 -14 7 -19 -1 -3 -5 -24 -10 -46 -10 l-39 0 0 70 0 70 33 0 c18 0 38
-5 45 -12z"/>
</g>
</svg>
