<?xml version="1.0" standalone="no"?>
<!DOCTYPE svg PUBLIC "-//W3C//DTD SVG 20010904//EN"
 "http://www.w3.org/TR/2001/REC-SVG-20010904/DTD/svg10.dtd">
<svg version="1.0" xmlns="http://www.w3.org/2000/svg"
 width="252.000000pt" height="120.000000pt" viewBox="0 0 252.000000 120.000000"
 preserveAspectRatio="xMidYMid meet">
<metadata>
Created by potrace 1.11, written by Peter Selinger 2001-2013
</metadata>
<g transform="translate(0.000000,120.000000) scale(0.100000,-0.100000)"
fill="#000000" stroke="none">
<path d="M0 600 l0 -600 1260 0 1260 0 0 600 0 600 -1260 0 -1260 0 0 -600z
m420 431 c0 -18 -17 -55 -45 -97 -25 -37 -43 -69 -41 -72 3 -2 19 6 35 17 42
30 149 78 194 86 29 6 38 4 43 -10 10 -25 -38 -69 -125 -114 -119 -61 -191
-74 -191 -33 0 10 -21 -4 -57 -40 -79 -76 -140 -118 -175 -118 -22 0 -28 5
-28 20 0 93 279 390 366 390 20 0 24 -5 24 -29z m287 -218 c14 -42 -258 -82
-283 -41 -19 30 81 58 195 55 55 -1 86 -6 88 -14z m-156 -83 c54 -30 -12 -70
-155 -95 -148 -25 -261 -17 -261 20 0 23 82 60 167 74 75 12 226 13 249 1z
m-443 -130 c20 -6 89 -14 152 -17 130 -6 248 8 297 37 l31 18 0 -179 c0 -208
5 -198 -105 -219 -82 -16 -343 -8 -398 12 l-40 15 -3 187 c-2 170 -1 186 13
172 9 -8 32 -20 53 -26z m805 -6 c30 -5 37 -11 37 -29 0 -48 -8 -54 -65 -48
-66 7 -111 -9 -130 -48 -31 -59 -7 -131 51 -155 48 -20 74 -11 74 27 0 24 -4
29 -25 29 -22 0 -25 4 -25 35 l0 35 70 0 70 0 0 -95 0 -94 -37 -10 c-100 -28
-211 -1 -257 62 -30 41 -30 173 0 213 52 70 130 95 237 78z m990 -7 c18 -8 39
-22 47 -31 21 -26 18 -83 -7 -107 l-20 -20 28 -29 c19 -18 29 -39 29 -57 -1
-74 -56 -113 -162 -113 l-68 0 0 179 c0 201 -5 188 78 190 23 0 57 -5 75 -12z
m-793 -222 l0 -135 -45 0 -45 0 0 135 0 135 45 0 45 0 0 -135z m300 -8 c0
-123 -3 -146 -20 -174 -26 -43 -52 -55 -119 -56 -70 -1 -101 9 -101 33 0 43 9
49 67 43 47 -5 58 -3 69 12 22 29 18 32 -41 27 -50 -4 -57 -2 -85 26 -27 28
-30 36 -30 97 0 63 2 69 33 100 34 34 34 34 130 34 l97 -1 0 -141z m232 132
c33 -18 48 -71 48 -169 l0 -90 -40 0 c-22 0 -40 5 -40 10 0 7 -6 7 -19 0 -34
-18 -93 -12 -118 12 -25 24 -31 75 -12 110 13 24 67 48 111 48 30 0 31 1 15
17 -14 15 -23 16 -59 6 -32 -9 -45 -9 -50 0 -14 22 -8 55 10 60 34 9 134 7
154 -4z m567 -15 c63 -52 65 -152 6 -211 -28 -28 -40 -33 -79 -33 -61 0 -99
21 -120 64 -31 66 -15 142 40 185 40 31 113 29 153 -5z m141 -20 l29 -46 28
46 c22 37 33 46 55 46 37 0 35 -14 -12 -79 l-39 -54 45 -62 c24 -35 44 -65 44
-69 0 -3 -15 -6 -33 -6 -29 0 -37 6 -62 49 l-30 48 -30 -48 c-24 -40 -35 -49
-57 -49 -16 0 -28 4 -28 9 0 5 19 36 41 69 l42 60 -42 59 c-22 32 -41 62 -41
66 0 4 14 7 30 7 25 0 35 -8 60 -46z"/>
<path d="M2103 450 c-49 -20 -60 -114 -18 -155 32 -32 50 -31 86 4 21 22 29
39 29 66 0 27 -8 44 -29 66 -32 31 -35 32 -68 19z"/>
</g>
</svg>
